<svg width="30" height="43" viewBox="0 0 30 43" fill="none" xmlns="http://www.w3.org/2000/svg">
  <path d="M14.6782 0C6.57169 0 0 6.56684 0 14.6674C0 15.3205 0.118889 16.114 0.291035 16.9214C0.798251 19.2672 1.69022 21.5129 2.93079 23.5674C6.29141 29.1648 14.6846 43 14.6846 43C14.6846 43 22.9326 29.3757 26.1506 24.0558C27.3825 22.0291 28.3106 19.8328 28.9055 17.5369C29.1664 16.5212 29.3563 15.4975 29.3563 14.6674C29.3563 6.56684 22.7846 0 14.6782 0ZM14.5969 21.5C13.2457 21.5 11.9248 21.0993 10.8012 20.3486C9.67772 19.5979 8.80204 18.5309 8.28493 17.2825C7.76783 16.0341 7.63253 14.6604 7.89615 13.3351C8.15977 12.0098 8.81046 10.7924 9.76594 9.83695C10.7214 8.88147 11.9388 8.23078 13.2641 7.96716C14.5894 7.70354 15.9631 7.83884 17.2114 8.35594C18.4598 8.87305 19.5269 9.74873 20.2776 10.8723C21.0283 11.9958 21.429 13.3167 21.429 14.6679C21.429 16.4799 20.7092 18.2177 19.4279 19.4989C18.1467 20.7802 16.4089 21.5 14.5969 21.5Z" fill="#F25816"/>
  <circle cx="14.621" cy="14.622" r="8.82802" fill="white"/>
</svg>
