<svg width="41" height="41" viewBox="0 0 41 41" fill="none" xmlns="http://www.w3.org/2000/svg">
  <path d="M31.5205 29.4998C34.2111 26.7306 35.875 22.9578 35.875 18.792C35.875 10.3016 28.9904 3.41699 20.5 3.41699C12.0096 3.41699 5.125 10.3016 5.125 18.792C5.125 22.9578 6.78892 26.7306 9.47954 29.4998C9.49492 29.5161 9.50517 29.534 9.52054 29.5502L9.57094 29.6006C9.61108 29.6416 9.65123 29.6818 9.69223 29.7219L19.2922 39.3219C19.9593 39.989 21.0407 39.989 21.7078 39.3219L31.3078 29.7219C31.3488 29.6818 31.3889 29.6416 31.4291 29.6006L31.4795 29.5502C31.4957 29.534 31.5059 29.5152 31.5205 29.4998Z" fill="url(#paint0_linear)"/>
  <path d="M20.4993 27.3337C24.9809 27.3337 28.6139 23.7006 28.6139 19.2191C28.6139 14.7375 24.9809 11.1045 20.4993 11.1045C16.0178 11.1045 12.3848 14.7375 12.3848 19.2191C12.3848 23.7006 16.0178 27.3337 20.4993 27.3337Z" fill="url(#paint1_radial)"/>
  <path d="M20.5 26.4795C24.7457 26.4795 28.1875 23.0377 28.1875 18.792C28.1875 14.5463 24.7457 11.1045 20.5 11.1045C16.2543 11.1045 12.8125 14.5463 12.8125 18.792C12.8125 23.0377 16.2543 26.4795 20.5 26.4795Z" fill="#F9F9F9"/>
  <defs>
    <linearGradient id="paint0_linear" x1="9.62988" y1="7.9193" x2="31.3701" y2="29.6596" gradientUnits="userSpaceOnUse">
      <stop stop-color="#FF7630"/>
      <stop offset="1" stop-color="#FF8717"/>
    </linearGradient>
    <radialGradient id="paint1_radial" cx="0" cy="0" r="1" gradientUnits="userSpaceOnUse" gradientTransform="translate(20.4993 19.2191) scale(8.11458)">
      <stop offset="0.177"/>
      <stop offset="1" stop-opacity="0"/>
    </radialGradient>
  </defs>
</svg>
